<svg width="20" height="15" viewBox="0 0 20 15" fill="none" xmlns="http://www.w3.org/2000/svg">
<mask id="path-1-inside-1_64_619" fill="white">
<path fill-rule="evenodd" clip-rule="evenodd" d="M0.00012207 3.15124V12.0001C0.00012207 13.6569 1.34327 15.0001 3.00012 15.0001H17.0001C18.657 15.0001 20.0001 13.6569 20.0001 12.0001V3.15198L12.7279 10.4242C11.2216 11.9305 8.77939 11.9305 7.27308 10.4242L0.00012207 3.15124ZM19.5725 1.65083C19.5316 1.76205 19.4653 1.86854 19.3706 1.96323L11.8188 9.51506C10.8146 10.5193 9.18642 10.5193 8.18222 9.51506L0.630393 1.96323C0.535531 1.86837 0.469137 1.76168 0.428277 1.65024C0.888891 0.956965 1.67689 0.5 2.57162 0.5H17.4288C18.3237 0.5 19.1119 0.957224 19.5725 1.65083Z"/>
</mask>
<path fill-rule="evenodd" clip-rule="evenodd" d="M0.00012207 3.15124V12.0001C0.00012207 13.6569 1.34327 15.0001 3.00012 15.0001H17.0001C18.657 15.0001 20.0001 13.6569 20.0001 12.0001V3.15198L12.7279 10.4242C11.2216 11.9305 8.77939 11.9305 7.27308 10.4242L0.00012207 3.15124ZM19.5725 1.65083C19.5316 1.76205 19.4653 1.86854 19.3706 1.96323L11.8188 9.51506C10.8146 10.5193 9.18642 10.5193 8.18222 9.51506L0.630393 1.96323C0.535531 1.86837 0.469137 1.76168 0.428277 1.65024C0.888891 0.956965 1.67689 0.5 2.57162 0.5H17.4288C18.3237 0.5 19.1119 0.957224 19.5725 1.65083Z" fill="white"/>
<path d="M0.00012207 3.15124L0.353675 2.79768L-0.499878 1.94413V3.15124H0.00012207ZM20.0001 3.15198H20.5001V1.94487L19.6466 2.79842L20.0001 3.15198ZM12.7279 10.4242L13.0815 10.7777H13.0815L12.7279 10.4242ZM7.27308 10.4242L6.91953 10.7777L7.27308 10.4242ZM19.3706 1.96323L19.7241 2.31679L19.7241 2.31678L19.3706 1.96323ZM19.5725 1.65083L20.0418 1.82331L20.1292 1.5854L19.989 1.37425L19.5725 1.65083ZM11.8188 9.51506L11.4652 9.1615L11.8188 9.51506ZM8.18222 9.51506L7.82866 9.86861L8.18222 9.51506ZM0.630393 1.96323L0.983947 1.60968L0.983947 1.60968L0.630393 1.96323ZM0.428277 1.65024L0.0118174 1.37354L-0.128364 1.58453L-0.0411624 1.82236L0.428277 1.65024ZM0.500122 12.0001V3.15124H-0.499878V12.0001H0.500122ZM3.00012 14.5001C1.61941 14.5001 0.500122 13.3808 0.500122 12.0001H-0.499878C-0.499878 13.9331 1.06712 15.5001 3.00012 15.5001V14.5001ZM17.0001 14.5001H3.00012V15.5001H17.0001V14.5001ZM19.5001 12.0001C19.5001 13.3808 18.3808 14.5001 17.0001 14.5001V15.5001C18.9331 15.5001 20.5001 13.9331 20.5001 12.0001H19.5001ZM19.5001 3.15198V12.0001H20.5001V3.15198H19.5001ZM19.6466 2.79842L12.3744 10.0706L13.0815 10.7777L20.3537 3.50553L19.6466 2.79842ZM12.3744 10.0706C11.0633 11.3817 8.93768 11.3817 7.62663 10.0706L6.91953 10.7777C8.6211 12.4793 11.3799 12.4793 13.0815 10.7777L12.3744 10.0706ZM7.62663 10.0706L0.353675 2.79768L-0.353431 3.50479L6.91953 10.7777L7.62663 10.0706ZM19.7241 2.31678C19.8697 2.1712 19.9757 2.00305 20.0418 1.82331L19.1032 1.47835C19.0875 1.52106 19.0608 1.56588 19.017 1.60968L19.7241 2.31678ZM12.1723 9.86861L19.7241 2.31679L19.017 1.60968L11.4652 9.1615L12.1723 9.86861ZM7.82866 9.86861C9.02813 11.0681 10.9729 11.0681 12.1723 9.86861L11.4652 9.1615C10.6563 9.97045 9.34471 9.97045 8.53577 9.1615L7.82866 9.86861ZM0.27684 2.31679L7.82866 9.86861L8.53577 9.1615L0.983947 1.60968L0.27684 2.31679ZM-0.0411624 1.82236C0.0248683 2.00245 0.130993 2.17094 0.27684 2.31679L0.983947 1.60968C0.940068 1.5658 0.913405 1.5209 0.897717 1.47812L-0.0411624 1.82236ZM2.57162 0C1.50243 0 0.561154 0.54673 0.0118174 1.37354L0.844738 1.92694C1.21663 1.3672 1.85135 1 2.57162 1V0ZM17.4288 0H2.57162V1H17.4288V0ZM19.989 1.37425C19.4398 0.54704 18.4983 0 17.4288 0V1C18.1492 1 18.7841 1.36741 19.156 1.92741L19.989 1.37425Z" fill="white" fill-opacity="0.3" mask="url(#path-1-inside-1_64_619)"/>
</svg>
